# xmcd
#
# Track frame offsets:
#	150
#	11863
#	32888
#	49513
#	60900
#	78788
#	98400
#	111888
#	122438
#	137113
#	147775
#	160675
#	174175
#	185725
#	195238
#	209163
#	218525
#	231050
#	243800
#	253938
#	265875
#	278313
#	290413
#	302725
#
# Disc length: 4189 seconds
#
# Revision: 0
# Processed by: cddbd v1.5.2PL0 Copyright (c) Steve Scherf et al.
# Submitted via: EasyCDDAExtractor 8.2.1.1
#
DISCID=40105b18
DTITLE=Elvis Presley - From the heart
DYEAR=1900
DGENRE=Blues
TTITLE0=The Wonder Of You
TTITLE1=I Just Can't Help Beleve
TTITLE2=Always on my mind
TTITLE3=You don't have to say you love me
TTITLE4=Until it's time for you to go
TTITLE5=Suspicious minds
TTITLE6=There goes my everything
TTITLE7=The girl of my best friend
TTITLE8=It's now or never
TTITLE9=Good luck charm
TTITLE10=Love letters
TTITLE11=Can't help falling in love
TTITLE12=Suspicion
TTITLE13=She's not you
TTITLE14=Are yopu lonesome tonight?
TTITLE15=Wooden heart
TTITLE16=Love me tender
TTITLE17=Don't
TTITLE18=Loving you
TTITLE19=Now and Then (There's such a fool as I)
TTITLE20=Love me
TTITLE21=I want you I need you I love
TTITLE22=It's only love
TTITLE23=Unchained melody
EXTD=
EXTT0=
EXTT1=
EXTT2=
EXTT3=
EXTT4=
EXTT5=
EXTT6=
EXTT7=
EXTT8=
EXTT9=
EXTT10=
EXTT11=
EXTT12=
EXTT13=
EXTT14=
EXTT15=
EXTT16=
EXTT17=
EXTT18=
EXTT19=
EXTT20=
EXTT21=
EXTT22=
EXTT23=
PLAYORDER=
